<svg width="170" height="40" viewBox="0 0 170 40" fill="none" xmlns="http://www.w3.org/2000/svg">
<path d="M90.6074 33.7069C90.6074 34.7672 90.3637 35.6201 89.8763 36.2657C89.3889 36.907 88.7348 37.2276 87.9139 37.2276C87.0375 37.2276 86.3599 36.9177 85.881 36.2977L85.8233 37.0994H84.7331V27.249H85.9195V30.9237C86.3983 30.3294 87.0589 30.0323 87.9011 30.0323C88.7433 30.0323 89.4039 30.3508 89.8827 30.9878C90.3658 31.6248 90.6074 32.497 90.6074 33.6043V33.7069ZM89.421 33.5722C89.421 32.7642 89.2649 32.14 88.9528 31.6996C88.6407 31.2593 88.1918 31.0391 87.6061 31.0391C86.8237 31.0391 86.2615 31.4025 85.9195 32.1293V35.1306C86.2829 35.8574 86.8494 36.2208 87.6189 36.2208C88.1875 36.2208 88.63 36.0006 88.9464 35.5602C89.2628 35.1199 89.421 34.4572 89.421 33.5722Z" fill="#818E9B"/>
<path d="M94.3013 35.3614L95.9173 30.1605H97.1871L94.3974 38.1703C93.9656 39.3247 93.2795 39.9018 92.3389 39.9018L92.1144 39.8826L91.6719 39.7992V38.8373L91.9926 38.8629C92.3945 38.8629 92.7066 38.7817 92.9289 38.6192C93.1555 38.4568 93.3414 38.1596 93.4868 37.7278L93.7497 37.0224L91.2743 30.1605H92.5697L94.3013 35.3614Z" fill="#818E9B"/>
<path d="M101.561 37.0994V27.7621H104.318C105.143 27.7621 105.875 27.9459 106.512 28.3136C107.153 28.6813 107.649 29.2028 107.999 29.8783C108.35 30.5538 108.525 31.3277 108.525 32.1998V32.668C108.525 33.553 108.348 34.3311 107.993 35.0023C107.642 35.6735 107.14 36.1909 106.486 36.5543C105.836 36.9177 105.09 37.0994 104.248 37.0994H101.561ZM103.183 29.0703V35.8039H104.241C105.092 35.8039 105.744 35.5389 106.197 35.0087C106.655 34.4743 106.888 33.709 106.896 32.7129V32.1934C106.896 31.1802 106.676 30.4063 106.236 29.8719C105.795 29.3375 105.156 29.0703 104.318 29.0703H103.183Z" fill="#818E9B"/>
<path d="M109.699 33.5658C109.699 32.886 109.833 32.2747 110.103 31.7317C110.372 31.1845 110.751 30.7655 111.238 30.4748C111.725 30.1798 112.285 30.0323 112.918 30.0323C113.854 30.0323 114.613 30.3337 115.195 30.9365C115.78 31.5393 116.097 32.3388 116.144 33.3349L116.15 33.7005C116.15 34.3845 116.018 34.9959 115.753 35.5346C115.492 36.0733 115.116 36.4901 114.624 36.7851C114.137 37.0801 113.572 37.2276 112.931 37.2276C111.952 37.2276 111.167 36.9027 110.577 36.2528C109.992 35.5987 109.699 34.7287 109.699 33.6428V33.5658ZM111.257 33.7005C111.257 34.4145 111.405 34.9745 111.7 35.3807C111.995 35.7826 112.405 35.9835 112.931 35.9835C113.457 35.9835 113.865 35.7783 114.156 35.3679C114.451 34.9574 114.598 34.3567 114.598 33.5658C114.598 32.8647 114.447 32.3089 114.143 31.8984C113.844 31.488 113.435 31.2828 112.918 31.2828C112.409 31.2828 112.005 31.4859 111.706 31.892C111.407 32.2939 111.257 32.8967 111.257 33.7005Z" fill="#818E9B"/>
<path d="M120.319 35.9835C120.708 35.9835 121.031 35.8702 121.287 35.6436C121.544 35.417 121.68 35.137 121.697 34.8035H123.166C123.149 35.2353 123.014 35.6393 122.762 36.0156C122.51 36.3875 122.168 36.6825 121.736 36.9006C121.304 37.1186 120.838 37.2276 120.338 37.2276C119.367 37.2276 118.598 36.9134 118.029 36.2849C117.461 35.6564 117.176 34.7885 117.176 33.6812V33.5209C117.176 32.4649 117.459 31.6205 118.023 30.9878C118.587 30.3508 119.357 30.0323 120.332 30.0323C121.157 30.0323 121.828 30.2738 122.345 30.7569C122.867 31.2358 123.14 31.8664 123.166 32.6488H121.697C121.68 32.2511 121.544 31.9241 121.287 31.6676C121.035 31.411 120.712 31.2828 120.319 31.2828C119.814 31.2828 119.425 31.4666 119.152 31.8343C118.878 32.1977 118.739 32.7514 118.735 33.4953V33.7454C118.735 34.4978 118.869 35.06 119.139 35.432C119.412 35.7997 119.806 35.9835 120.319 35.9835Z" fill="#818E9B"/>
<path d="M130.419 33.7005C130.419 34.7736 130.175 35.6308 129.688 36.2721C129.201 36.9091 128.547 37.2276 127.726 37.2276C126.965 37.2276 126.355 36.9775 125.898 36.4773V39.7672H124.34V30.1605H125.776L125.84 30.8659C126.298 30.3102 126.92 30.0323 127.706 30.0323C128.553 30.0323 129.216 30.3486 129.694 30.9814C130.178 31.6098 130.419 32.4842 130.419 33.6043V33.7005ZM128.867 33.5658C128.867 32.8732 128.728 32.3238 128.45 31.9177C128.177 31.5115 127.783 31.3084 127.27 31.3084C126.633 31.3084 126.176 31.5714 125.898 32.0972V35.1755C126.18 35.7142 126.642 35.9835 127.283 35.9835C127.779 35.9835 128.166 35.7847 128.444 35.3871C128.726 34.9852 128.867 34.3781 128.867 33.5658Z" fill="#818E9B"/>
<path d="M133.401 37.0994H131.843V27.249H133.401V37.0994Z" fill="#818E9B"/>
<path d="M139.25 37.0994C139.181 36.9668 139.122 36.7509 139.07 36.4516C138.574 36.969 137.967 37.2276 137.249 37.2276C136.552 37.2276 135.983 37.0288 135.543 36.6312C135.103 36.2336 134.883 35.7419 134.883 35.1562C134.883 34.4166 135.156 33.8501 135.703 33.4568C136.255 33.0592 137.042 32.8604 138.063 32.8604H139.019V32.4051C139.019 32.0459 138.918 31.7595 138.718 31.5457C138.517 31.3277 138.211 31.2187 137.8 31.2187C137.446 31.2187 137.155 31.3084 136.928 31.488C136.702 31.6633 136.588 31.8877 136.588 32.1614H135.03C135.03 31.7809 135.156 31.426 135.408 31.0968C135.661 30.7633 136.003 30.5025 136.435 30.3144C136.871 30.1263 137.356 30.0323 137.89 30.0323C138.703 30.0323 139.35 30.2375 139.833 30.6479C140.316 31.0541 140.564 31.6269 140.577 32.3666V35.4961C140.577 36.1203 140.665 36.6184 140.84 36.9903V37.0994H139.25ZM137.538 35.9771C137.845 35.9771 138.134 35.9023 138.403 35.7526C138.677 35.603 138.882 35.4021 139.019 35.1498V33.8416H138.179C137.602 33.8416 137.168 33.942 136.877 34.143C136.586 34.3439 136.441 34.6282 136.441 34.9959C136.441 35.2952 136.539 35.5346 136.736 35.7142C136.937 35.8894 137.204 35.9771 137.538 35.9771Z" fill="#818E9B"/>
<path d="M143.656 30.1605L143.7 30.9621C144.213 30.3422 144.887 30.0323 145.72 30.0323C147.166 30.0323 147.901 30.8595 147.927 32.5141V37.0994H146.368V32.6039C146.368 32.1635 146.272 31.8386 146.08 31.6291C145.892 31.4153 145.582 31.3084 145.15 31.3084C144.521 31.3084 144.053 31.5927 143.745 32.1614V37.0994H142.187V30.1605H143.656Z" fill="#818E9B"/>
<path d="M150.966 30.1605L151.011 30.9621C151.524 30.3422 152.198 30.0323 153.031 30.0323C154.476 30.0323 155.212 30.8595 155.237 32.5141V37.0994H153.679V32.6039C153.679 32.1635 153.583 31.8386 153.39 31.6291C153.202 31.4153 152.892 31.3084 152.461 31.3084C151.832 31.3084 151.364 31.5927 151.056 32.1614V37.0994H149.498V30.1605H150.966Z" fill="#818E9B"/>
<path d="M159.887 37.2276C158.899 37.2276 158.098 36.9177 157.482 36.2977C156.871 35.6735 156.565 34.8441 156.565 33.8095V33.6171C156.565 32.9245 156.697 32.3067 156.962 31.7638C157.232 31.2165 157.608 30.7911 158.091 30.4876C158.574 30.184 159.113 30.0323 159.707 30.0323C160.652 30.0323 161.381 30.3337 161.894 30.9365C162.411 31.5393 162.67 32.3922 162.67 33.4953V34.1237H158.136C158.183 34.6966 158.373 35.1498 158.707 35.4833C159.045 35.8168 159.468 35.9835 159.977 35.9835C160.691 35.9835 161.272 35.6949 161.721 35.1177L162.561 35.9194C162.283 36.3341 161.911 36.6569 161.445 36.8877C160.983 37.1143 160.464 37.2276 159.887 37.2276ZM159.701 31.2828C159.273 31.2828 158.927 31.4324 158.662 31.7317C158.401 32.031 158.234 32.4478 158.162 32.9822H161.131V32.8668C161.097 32.3452 160.958 31.9519 160.714 31.6868C160.47 31.4175 160.133 31.2828 159.701 31.2828Z" fill="#818E9B"/>
<path d="M167.518 31.5842C167.313 31.55 167.101 31.5329 166.883 31.5329C166.169 31.5329 165.688 31.8065 165.44 32.3538V37.0994H163.882V30.1605H165.37L165.408 30.9365C165.785 30.3337 166.306 30.0323 166.973 30.0323C167.195 30.0323 167.379 30.0622 167.525 30.122L167.518 31.5842Z" fill="#818E9B"/>
<path d="M158.568 0C164.777 0 168.946 4.86818 168.946 10.5231C168.946 16.1782 164.719 21.1042 158.51 21.1042C152.301 21.1042 148.133 16.2369 148.133 10.5813C148.133 4.92648 152.359 0 158.568 0ZM137.201 0.350402C141.807 0.350402 144.839 2.79811 144.839 6.85039C144.839 11.2808 141.166 13.5542 136.823 13.5542H131.868V20.7544H129.565V0.350402H137.201ZM80.42 0.350083V2.47771H73.5692V20.7543H71.2372V2.47771H64.3875V0.350083H80.42ZM99.4831 0.350402V2.44835H87.0364V9.41543H98.1711V11.5148H87.0364V18.6562H99.6288V20.7543H84.7332V0.350402H99.4831ZM106.595 0.350402L114.029 11.4853L121.462 0.350402H123.794V20.7543H121.49V4.22727L114.057 15.1577H113.941L106.508 4.2561V20.7543H104.263V0.350402H106.595ZM166.227 9.58903H158.212V11.578H166.227V9.58903ZM137.027 2.47813H131.868V11.4559H136.91C140.292 11.4559 142.507 9.6486 142.507 6.93836C142.507 3.99367 140.321 2.47813 137.027 2.47813Z" fill="#818E9B"/>
<path d="M52.0022 0C58.21 0 62.3791 4.86818 62.3791 10.5231C62.3791 16.1782 58.1531 21.1042 51.9442 21.1042C45.735 21.1042 41.5668 16.2369 41.5668 10.5813C41.5668 4.92648 45.7934 0 52.0022 0ZM22.3282 0.349657V12.0677C22.3282 16.4696 24.6609 18.9478 28.5659 18.9478C32.3271 18.9478 34.7172 16.6736 34.7172 12.2142V0.349657H37.0198V12.0384C37.0198 17.9855 33.6095 21.0754 28.5083 21.0754C23.4652 21.0754 20.0257 17.9855 20.0257 12.2142V0.349657H22.3282ZM16.0326 0.350083V2.4777H9.18183V20.7543H6.84986V2.4777H0V0.350083H16.0326ZM53.078 2.74184H51.0891V10.7564H53.078V2.74184Z" fill="#00C3A5"/>
</svg>
